# xmcd CD database file
#
# Track frame offsets:
#	150
#	16169
#	30569
#	44775
#	63499
#	77533
#	95384
#	109341
#	123516
#	140160
#	153447
#	170135
#	185285
#
# Disc length: 2701 seconds
#
# Revision: 2
# Processed by: cddbd v1.5.2PL0 Copyright (c) Steve Scherf et al.
# Submitted via: CDex 1.79
#
DISCID=b10a8b0d
DTITLE=Kyle Park - Beggin' For More
DYEAR=2013
DGENRE=Country
TTITLE0=The Night Is Young
TTITLE1=Beggin' For More
TTITLE2=You Make Me Believe
TTITLE3=True Love
TTITLE4=Long Distance Relationship
TTITLE5=No Woman Of Mine
TTITLE6=Tagged
TTITLE7=Live Through The Pain
TTITLE8=He Got You
TTITLE9=Turn That Crown Upside Down
TTITLE10=Like Nobody Will
TTITLE11=Fit For The King
TTITLE12=Bad Timing
EXTD=YEAR: 2013
EXTT0=
EXTT1=
EXTT2=
EXTT3=
EXTT4=
EXTT5=
EXTT6=
EXTT7=
EXTT8=
EXTT9=
EXTT10=
EXTT11=
EXTT12=
PLAYORDER=
